<svg width="77" height="80" viewBox="0 0 77 80" fill="none" xmlns="http://www.w3.org/2000/svg">
<path d="M25.7117 0C29.5318 0.020499 33.349 0 37.1691 0.0102495C39.219 2.19047 41.3919 4.25647 43.3833 6.49526C44.9676 8.18643 46.6543 9.78096 48.2152 11.4956C49.3748 12.6947 50.4569 13.9847 51.722 15.0682C48.2079 16.7492 44.7333 18.5472 41.2089 20.2296L41.2001 20.7406C46.6646 20.723 52.129 20.7406 57.5993 20.7333C62.2145 20.5312 66.8942 22.1477 70.4434 25.0923C73.9151 28.0119 75.8098 32.4807 76.0894 36.9524C76.5785 41.7169 75.4686 46.8812 72.1829 50.5066C69.5737 53.4014 65.8751 55.1116 62.1077 55.8979C58.6404 56.6461 55.0794 56.2273 51.5653 56.3459C51.5585 62.8753 51.5585 69.4023 51.5653 75.9269C47.6925 75.9269 43.8196 75.9269 39.9438 75.9269C38.074 73.7964 35.9377 71.9047 34.0679 69.7816C31.8936 67.4871 29.6577 65.2542 27.4585 62.9861C25.8376 61.1105 23.9941 59.4413 22.3337 57.6081C27.4585 57.5934 32.5832 57.6081 37.708 57.5993C38.7241 57.4895 39.0258 58.7209 39.9145 58.9595C39.9394 58.0371 39.9321 57.1176 39.9145 56.1936C39.3357 56.2775 38.7524 56.3264 38.1677 56.3401C31.5319 56.3269 24.8976 56.3401 18.2617 56.3327C13.6817 56.0326 8.99618 54.5244 5.61824 51.3105C2.88601 48.8213 1.38227 45.2237 0.943001 41.5998C0.503736 37.4268 1.0411 33.04 3.091 29.3268C6.27421 23.5739 13.096 20.4463 19.5268 20.7333C21.5943 20.7333 23.6588 20.7435 25.7248 20.7333C25.7146 13.8178 25.7366 6.90817 25.7117 0ZM28.9739 43.9557C33.7268 41.6335 38.4577 39.2702 43.2207 36.9744C43.212 42.0171 43.2705 47.0613 43.1929 52.1041C42.0699 52.1041 40.9483 52.1041 39.8252 52.0938C39.8106 48.8726 39.8252 45.6513 39.8164 42.43C35.0734 44.7601 30.3298 47.0892 25.5857 49.4173C25.5228 41.1898 25.596 32.9595 25.5477 24.7321C25.237 24.8375 24.9518 25.0066 24.7101 25.2284C21.915 27.9065 19.8021 31.3679 18.9997 35.1763C18.1622 39.1194 18.5956 43.4008 20.5518 46.9588C21.8915 49.3514 23.773 51.5345 26.1524 52.9211C34.1089 53.0017 42.0743 52.9211 50.0352 52.9563C50.9723 53.0749 51.7117 52.4204 52.3941 51.8845C53.7485 50.7248 54.9799 49.407 55.9199 47.8886C58.5364 43.7888 59.0694 38.5469 57.6974 33.9229C56.6212 30.3751 54.5333 27.088 51.6722 24.7321C51.6312 33.8497 51.6722 42.9688 51.6517 52.0894C50.5316 52.1114 49.4158 52.107 48.2986 52.0997C48.285 44.2906 48.285 36.4814 48.2986 28.6723C43.5194 30.9828 38.79 33.3841 34.024 35.7122C34.0064 26.7317 34.0064 17.7512 34.024 8.77065C36.5381 11.3067 38.9643 13.932 41.4549 16.4885L42.2295 16.0698C39.4519 13.257 36.7928 10.3403 34.005 7.54364L33.185 7.5817C33.207 17.4329 33.1748 27.2871 33.1997 37.1369C37.9408 34.7941 42.7039 32.4851 47.4406 30.1306C47.4533 37.4517 47.4533 44.7762 47.4406 52.1041C46.3132 52.1041 45.1857 52.1041 44.0568 52.0938C44.0568 46.603 44.0641 41.1122 44.0568 35.62C39.304 37.929 34.5746 40.282 29.8246 42.5969C29.808 29.7997 29.808 17.0025 29.8246 4.20522C31.7003 4.22865 33.5745 4.07491 35.4472 4.14959C36.0197 4.46293 36.3829 5.04276 36.847 5.48641C39.7432 8.48659 42.5926 11.5307 45.4859 14.5309L46.218 14.0916C42.7361 10.5204 39.3142 6.8906 35.847 3.30473C33.5525 3.29156 31.261 3.30473 28.9651 3.30473C28.9681 16.8497 28.971 30.4 28.9739 43.9557ZM37.3785 17.1811C37.3551 18.3525 37.3683 19.5238 37.3683 20.6879C38.4298 20.6205 39.4929 20.6498 40.5573 20.6176C39.6627 19.3393 38.4679 18.2924 37.3785 17.1811ZM37.4312 23.9912C37.4156 25.9718 37.4156 27.9543 37.4312 29.9388C37.8018 29.8089 38.1655 29.6598 38.5206 29.4922C41.7697 27.8567 45.0159 26.2094 48.2781 24.5988C48.5797 24.4354 48.8663 24.2458 49.1347 24.0322C45.234 23.9428 41.3319 24.0131 37.4312 23.9912ZM43.2207 56.3225C43.2017 59.9537 43.2295 63.585 43.2046 67.2148C42.1943 66.3685 41.3495 65.3494 40.4226 64.424C39.3435 63.2819 38.1926 62.2057 37.1721 61.0094C36.7958 61.0094 36.4209 61.0094 36.0476 61.0226C38.0477 63.44 40.4095 65.5353 42.4901 67.8854C42.84 68.455 43.4887 68.4506 44.0832 68.4579C44.0832 64.4386 44.07 60.4223 44.0934 56.403L43.2207 56.3225ZM47.5036 56.4367C47.4919 61.6054 47.5373 66.7741 47.4831 71.9398C45.5445 71.9837 43.6088 71.9398 41.6716 71.9662C38.1575 68.3905 34.7605 64.7168 31.2464 61.1544C30.9989 61.131 30.5143 61.0856 30.2654 61.0651C32.3987 63.3551 34.6653 65.5265 36.7328 67.8781C38.3991 69.4082 39.9014 71.0993 41.5003 72.71C43.742 72.6968 45.9808 72.71 48.2225 72.7027C48.2298 67.2851 48.2123 61.8675 48.2298 56.4499C48.0483 56.4382 47.6851 56.4382 47.505 56.4367H47.5036Z" fill="#EE2128"/>
<path d="M7.02536 75.9305C7.27317 75.928 7.5187 75.978 7.74581 76.0772C7.97293 76.1764 8.1765 76.3225 8.34315 76.5059C8.52668 76.6976 8.66995 76.9241 8.76451 77.1721C8.85906 77.42 8.90299 77.6844 8.8937 77.9496C8.90818 78.4927 8.70648 79.0194 8.3329 79.4138C8.1613 79.6016 7.95188 79.7508 7.71844 79.8518C7.48499 79.9527 7.23281 80.0031 6.9785 79.9995C6.72596 80.0048 6.47515 79.9566 6.2425 79.8582C6.00986 79.7598 5.80062 79.6134 5.6285 79.4285C5.44437 79.2302 5.30131 78.9975 5.20757 78.7437C5.11383 78.4898 5.07127 78.22 5.08234 77.9496C5.07238 77.6669 5.12361 77.3854 5.23253 77.1244C5.34145 76.8633 5.50549 76.6289 5.71342 76.4371C6.06738 76.1027 6.53853 75.9208 7.02536 75.9305ZM6.96972 76.1399C6.80962 76.1344 6.65046 76.1665 6.50501 76.2336C6.35956 76.3007 6.23187 76.401 6.13219 76.5264C5.8696 76.8485 5.73831 77.3195 5.73831 77.9394C5.73831 78.5749 5.87448 79.0629 6.14683 79.4036C6.24377 79.5294 6.36916 79.6304 6.51271 79.6984C6.65627 79.7664 6.81389 79.7993 6.97265 79.7945C7.14644 79.7979 7.31865 79.761 7.47586 79.6869C7.63307 79.6127 7.77103 79.5032 7.87899 79.367C8.1162 79.0741 8.23626 78.6349 8.23626 78.0184C8.23626 77.3517 8.10497 76.8549 7.84239 76.5279C7.73727 76.3996 7.60361 76.2977 7.45208 76.2304C7.30055 76.163 7.13536 76.132 6.96972 76.1399Z" fill="#EE2128"/>
<path d="M11.4048 79.9096L10.3623 78.6005H10.2949H10.1924H10.1295V79.3678C10.1254 79.454 10.1404 79.5399 10.1734 79.6196C10.1947 79.6722 10.2308 79.7175 10.2774 79.75C10.3163 79.7775 10.3617 79.7947 10.4091 79.7997C10.456 79.7997 10.4985 79.8071 10.5351 79.8071V79.9096H9.18359V79.8071C9.26319 79.8091 9.34265 79.7992 9.41933 79.7778C9.47398 79.7627 9.52227 79.7304 9.55697 79.6855C9.59115 79.6385 9.61282 79.5836 9.61993 79.5259C9.63206 79.448 9.63745 79.3691 9.63604 79.2902V77.7088C9.63708 77.6305 9.63218 77.5522 9.62139 77.4746C9.6154 77.416 9.5942 77.3599 9.5599 77.312C9.52478 77.2677 9.47665 77.2354 9.42226 77.2198C9.34484 77.197 9.26428 77.1866 9.18359 77.189V77.088H10.4106C10.4721 77.088 10.5395 77.088 10.6141 77.088C10.6898 77.0924 10.7651 77.1017 10.8396 77.1158C10.9195 77.131 10.9979 77.153 11.0739 77.1817C11.1538 77.2117 11.2292 77.2526 11.2979 77.3033C11.3756 77.3626 11.4395 77.438 11.4853 77.5243C11.5374 77.6162 11.5638 77.7204 11.5615 77.826C11.5634 77.9053 11.5505 77.9842 11.5234 78.0588C11.4993 78.1227 11.4647 78.1821 11.4209 78.2345C11.3788 78.2837 11.3294 78.3261 11.2745 78.3604C11.2252 78.3934 11.1733 78.4223 11.1193 78.4468C11.0716 78.4678 11.0227 78.4859 10.9729 78.501L10.866 78.5317L11.5981 79.4425C11.642 79.4952 11.6845 79.5435 11.724 79.5889C11.7608 79.6276 11.8016 79.6625 11.8455 79.6928C11.8862 79.7216 11.9299 79.7456 11.9759 79.7646C12.0232 79.7845 12.0722 79.8001 12.1223 79.8114V79.9139L11.4048 79.9096ZM10.1295 78.4541C10.167 78.4565 10.2047 78.4565 10.2422 78.4541C10.2851 78.4576 10.3282 78.4576 10.3711 78.4541C10.4205 78.4492 10.4694 78.4404 10.5175 78.4278C10.5725 78.4129 10.6259 78.3928 10.6771 78.3677C10.7537 78.3283 10.8209 78.2728 10.8742 78.2051C10.9275 78.1374 10.9656 78.059 10.986 77.9753C10.9994 77.9276 11.0063 77.8784 11.0065 77.8289C11.0073 77.7485 10.9935 77.6686 10.9655 77.5932C10.939 77.5227 10.8979 77.4587 10.8449 77.4052C10.7919 77.3517 10.7282 77.31 10.6581 77.2828C10.5797 77.252 10.4962 77.2366 10.4121 77.2374C10.3597 77.2378 10.3074 77.2412 10.2554 77.2476L10.1309 77.2637L10.1295 78.4541Z" fill="#EE2128"/>
<path d="M13.5602 79.9096H12.257V79.8071C12.33 79.8096 12.4029 79.7991 12.4723 79.7763C12.5212 79.7593 12.5636 79.7276 12.5938 79.6855C12.6229 79.6416 12.6415 79.5915 12.648 79.5391C12.6574 79.4717 12.6618 79.4037 12.6611 79.3356V77.6708C12.6611 77.6107 12.6611 77.5507 12.6611 77.4936C12.658 77.4421 12.6429 77.392 12.6172 77.3472C12.5891 77.2997 12.5472 77.262 12.4972 77.2388C12.4233 77.2071 12.3432 77.1926 12.2629 77.1964V77.0953H13.566V77.1964C13.4857 77.1923 13.4055 77.2068 13.3318 77.2388C13.2814 77.2615 13.2394 77.2994 13.2117 77.3472C13.1861 77.3921 13.1706 77.4421 13.1663 77.4936C13.1663 77.5507 13.1663 77.6107 13.1663 77.6708V79.3327C13.1657 79.4007 13.1701 79.4688 13.1795 79.5362C13.186 79.5885 13.2045 79.6386 13.2337 79.6826C13.264 79.7251 13.3071 79.7569 13.3566 79.7734C13.426 79.7965 13.4989 79.8069 13.5719 79.8041L13.5602 79.9096Z" fill="#EE2128"/>
<path d="M15.5603 77.9489H15.4564C15.4359 77.8618 15.408 77.7765 15.3729 77.6942C15.3288 77.5938 15.2701 77.5005 15.1987 77.4174C15.1367 77.3391 15.0569 77.2769 14.9658 77.2359C14.8871 77.1982 14.8013 77.1777 14.714 77.1758C14.6559 77.1745 14.5981 77.1849 14.5442 77.2066C14.499 77.2248 14.4581 77.2523 14.4241 77.2871C14.3914 77.3197 14.3664 77.3593 14.3509 77.4028C14.3346 77.4468 14.3262 77.4934 14.326 77.5404C14.3247 77.6114 14.3419 77.6815 14.3758 77.7439C14.4143 77.8103 14.4638 77.8697 14.5222 77.9196C14.5928 77.9812 14.6682 78.037 14.7477 78.0866C14.8355 78.1422 14.9351 78.2008 15.0405 78.2637C15.1315 78.3154 15.2195 78.3721 15.3041 78.4336C15.3882 78.4925 15.4649 78.5613 15.5325 78.6386C15.5984 78.7132 15.6522 78.7977 15.6921 78.889C15.733 78.9852 15.7535 79.0889 15.7521 79.1935C15.7512 79.285 15.7343 79.3757 15.7023 79.4615C15.6673 79.5578 15.613 79.646 15.5427 79.7206C15.4638 79.8041 15.3693 79.8712 15.2645 79.9183C15.1373 79.974 14.9993 80.001 14.8604 79.9974C14.7919 79.9981 14.7235 79.9903 14.6569 79.9739C14.5954 79.9593 14.5368 79.9432 14.4841 79.9256L14.3377 79.8773C14.2979 79.8624 14.2558 79.8545 14.2132 79.8539C14.1832 79.8532 14.1533 79.8586 14.1254 79.87C14.1036 79.8791 14.0834 79.8914 14.0654 79.9066C14.0497 79.9204 14.0359 79.9361 14.0244 79.9534L13.998 79.9974H13.897V79.0442H13.998C14.0205 79.1578 14.059 79.2678 14.1122 79.3707C14.1536 79.4507 14.2059 79.5246 14.2674 79.5903C14.3169 79.6425 14.3736 79.6874 14.4358 79.7236C14.4852 79.752 14.5378 79.7746 14.5925 79.7909C14.6341 79.8029 14.6768 79.8112 14.7199 79.8158H14.7872C14.8555 79.8154 14.9234 79.806 14.9893 79.788C15.051 79.7716 15.1091 79.7438 15.1606 79.706C15.2146 79.6675 15.2582 79.6162 15.2873 79.5566C15.3165 79.497 15.3303 79.4311 15.3275 79.3648C15.3278 79.3007 15.3127 79.2375 15.2836 79.1803C15.2496 79.1178 15.2067 79.0606 15.1562 79.0105C15.0956 78.9479 15.0288 78.8915 14.9571 78.8421C14.8795 78.7865 14.7901 78.7294 14.6906 78.6708C14.591 78.6122 14.5002 78.5566 14.408 78.498C14.3181 78.4407 14.2337 78.375 14.1561 78.3018C14.0821 78.2312 14.0207 78.1485 13.9746 78.0573C13.9274 77.9612 13.9038 77.8553 13.9058 77.7483C13.9054 77.6538 13.9223 77.56 13.9555 77.4716C13.9878 77.3839 14.0376 77.3037 14.102 77.2359C14.1721 77.1653 14.2565 77.1104 14.3494 77.0748C14.4585 77.0321 14.575 77.0117 14.692 77.0148C14.7604 77.0137 14.8286 77.0201 14.8956 77.0338C14.9491 77.0458 15.0019 77.061 15.0537 77.0792L15.1767 77.1231C15.2099 77.136 15.2451 77.1429 15.2807 77.1436C15.2988 77.145 15.317 77.1426 15.3342 77.1366C15.3513 77.1305 15.367 77.121 15.3802 77.1085C15.4069 77.0808 15.4291 77.0492 15.4461 77.0148H15.5559L15.5603 77.9489Z" fill="#EE2128"/>
<path d="M17.7302 77.9489H17.6263C17.6058 77.8618 17.5779 77.7765 17.5428 77.6942C17.4982 77.5941 17.4395 77.5009 17.3686 77.4174C17.3097 77.3446 17.2358 77.2853 17.1519 77.2436C17.068 77.2019 16.9761 77.1788 16.8825 77.1758C16.8248 77.1745 16.7675 77.1849 16.7141 77.2066C16.6687 77.2252 16.6274 77.2526 16.5925 77.2871C16.5608 77.3202 16.5363 77.3596 16.5208 77.4028C16.5038 77.4467 16.4954 77.4934 16.4959 77.5404C16.4947 77.6114 16.5118 77.6815 16.5457 77.7439C16.5843 77.8103 16.6338 77.8697 16.6921 77.9196C16.7627 77.9812 16.8381 78.037 16.9176 78.0866C17.0055 78.1422 17.1036 78.2008 17.2104 78.2637C17.3173 78.3267 17.3876 78.3721 17.474 78.4336C17.5581 78.4925 17.6348 78.5613 17.7024 78.6386C17.7678 78.7136 17.8216 78.798 17.862 78.889C17.9029 78.9852 17.9234 79.0889 17.9221 79.1935C17.9211 79.285 17.9043 79.3757 17.8723 79.4615C17.8372 79.5578 17.7829 79.646 17.7127 79.7206C17.6338 79.8041 17.5392 79.8712 17.4345 79.9183C17.3067 79.9741 17.1682 80.0011 17.0289 79.9974C16.9608 79.998 16.8929 79.9902 16.8268 79.9739C16.7653 79.9593 16.7068 79.9432 16.654 79.9256L16.5076 79.8773C16.4673 79.8623 16.4247 79.8543 16.3817 79.8539C16.3521 79.8533 16.3227 79.8588 16.2953 79.87C16.2736 79.8791 16.2533 79.8914 16.2353 79.9066C16.2193 79.92 16.2054 79.9358 16.1943 79.9534L16.1665 79.9974H16.0669V79.0442H16.1709C16.1945 79.1577 16.2334 79.2676 16.2865 79.3707C16.3274 79.451 16.3797 79.525 16.4417 79.5903C16.491 79.6422 16.5472 79.687 16.6087 79.7236C16.6587 79.7518 16.7117 79.7744 16.7668 79.7909C16.808 79.8029 16.8501 79.8112 16.8927 79.8158H16.9601C17.0288 79.8155 17.0973 79.8061 17.1636 79.788C17.2258 79.7718 17.2845 79.744 17.3364 79.706C17.3877 79.6673 17.4293 79.6171 17.4579 79.5596C17.4889 79.4968 17.5045 79.4275 17.5033 79.3575C17.5035 79.2934 17.4885 79.2301 17.4594 79.173C17.4254 79.1105 17.3825 79.0533 17.332 79.0032C17.2713 78.9406 17.2046 78.8842 17.1328 78.8348C17.0538 78.7791 16.9659 78.722 16.8664 78.6635C16.7668 78.6049 16.676 78.5493 16.5838 78.4907C16.4936 78.4337 16.4092 78.368 16.3319 78.2945C16.2587 78.2247 16.1978 78.143 16.1518 78.0529C16.1039 77.9571 16.0803 77.851 16.083 77.7439C16.0826 77.6494 16.0995 77.5557 16.1328 77.4672C16.165 77.3795 16.2149 77.2993 16.2792 77.2315C16.3491 77.1612 16.4329 77.1064 16.5252 77.0704C16.6348 77.028 16.7518 77.0076 16.8693 77.0104C16.9376 77.0094 17.0058 77.0158 17.0728 77.0294C17.1263 77.0416 17.1791 77.0568 17.2309 77.0748L17.3539 77.1187C17.3871 77.1316 17.4223 77.1385 17.4579 77.1392C17.476 77.1405 17.4942 77.138 17.5113 77.1319C17.5284 77.1259 17.5441 77.1164 17.5575 77.1041C17.5841 77.0764 17.6063 77.0448 17.6234 77.0104H17.7332L17.7302 77.9489Z" fill="#EE2128"/>
<path d="M18.0421 79.9095V79.807C18.0802 79.807 18.1183 79.7997 18.1549 79.7938C18.1964 79.7842 18.2347 79.764 18.2661 79.7353C18.3132 79.6924 18.3542 79.6431 18.3877 79.5889C18.4426 79.4975 18.4915 79.4026 18.5341 79.3048L19.4756 77.0177H19.521L20.5635 79.4424C20.5931 79.5148 20.631 79.5836 20.6762 79.6474C20.7063 79.6896 20.7435 79.7263 20.7861 79.7558C20.8206 79.7794 20.8602 79.7945 20.9017 79.7997C20.943 79.8045 20.9846 79.807 21.0262 79.807V79.9095H19.8548V79.807H19.9295C19.9599 79.8044 19.9899 79.798 20.0188 79.788C20.0465 79.7787 20.0719 79.7637 20.0935 79.7441C20.1039 79.7332 20.112 79.7203 20.1173 79.7062C20.1225 79.6921 20.1249 79.6771 20.1242 79.6621C20.1238 79.6246 20.1168 79.5874 20.1037 79.5523C20.0891 79.5127 20.0686 79.4644 20.0422 79.4058L19.8841 79.0412H18.8738L18.7274 79.4058C18.7122 79.4429 18.7 79.4811 18.6908 79.52C18.6826 79.5501 18.6787 79.5811 18.679 79.6123C18.678 79.6468 18.6883 79.6808 18.7083 79.7089C18.7281 79.734 18.7531 79.7545 18.7815 79.769C18.8091 79.7829 18.838 79.7937 18.8679 79.8012C18.8905 79.8066 18.9136 79.8101 18.9367 79.8114V79.9139L18.0421 79.9095ZM18.9206 78.8655H19.7992L19.3482 77.8201L18.9206 78.8655Z" fill="#EE2128"/>
<path d="M25.2153 75.9298V77.2754H25.1025C25.0813 77.0595 25.0187 76.8497 24.918 76.6575C24.8271 76.5037 24.6953 76.378 24.5373 76.2944C24.3815 76.2059 24.2055 76.159 24.0263 76.1582C23.8442 76.1522 23.667 76.218 23.5329 76.3413C23.4727 76.3924 23.4241 76.4558 23.3905 76.5273C23.3569 76.5988 23.3391 76.6766 23.3381 76.7556C23.3385 76.8753 23.3822 76.9908 23.4611 77.0807C23.5797 77.2271 23.8623 77.4145 24.3075 77.6547C24.5665 77.7856 24.8156 77.9353 25.0527 78.1027C25.1804 78.2023 25.2853 78.3281 25.3602 78.4717C25.4299 78.6077 25.4665 78.7582 25.4671 78.911C25.4678 79.055 25.4376 79.1975 25.3785 79.3289C25.3194 79.4602 25.2328 79.5774 25.1245 79.6723C24.8847 79.8898 24.5694 80.0049 24.246 79.993C24.139 79.9935 24.0322 79.9847 23.9268 79.9667C23.8022 79.9396 23.6795 79.9049 23.5592 79.8627C23.4448 79.8197 23.3259 79.7893 23.2049 79.7719C23.184 79.7709 23.1631 79.7742 23.1435 79.7815C23.1238 79.7888 23.1059 79.8 23.0907 79.8144C23.0541 79.8671 23.0329 79.9289 23.0292 79.993H22.9223V78.6591H23.0292C23.0594 78.878 23.1273 79.09 23.2298 79.2858C23.325 79.4338 23.4586 79.5532 23.6163 79.6313C23.7918 79.724 23.9876 79.7713 24.1859 79.769C24.3919 79.7802 24.5945 79.7127 24.7526 79.5801C24.8178 79.5251 24.8702 79.4565 24.9061 79.3791C24.942 79.3017 24.9606 79.2174 24.9605 79.132C24.9593 79.0293 24.9321 78.9286 24.8814 78.8392C24.8204 78.7319 24.737 78.6391 24.6369 78.5669C24.4394 78.4343 24.2351 78.3121 24.0249 78.2008C23.7783 78.071 23.541 77.9242 23.3147 77.7615C23.184 77.6621 23.0749 77.537 22.9941 77.394C22.9219 77.2589 22.8847 77.1079 22.8857 76.9548C22.8849 76.8184 22.9133 76.6835 22.9688 76.559C23.0244 76.4346 23.1058 76.3234 23.2078 76.2329C23.4299 76.0288 23.7234 75.9204 24.0249 75.9313C24.2518 75.9342 24.4756 75.9841 24.6823 76.0777C24.753 76.1151 24.8299 76.1394 24.9092 76.1494C24.954 76.1514 24.9976 76.1356 25.0308 76.1055C25.0726 76.0544 25.0991 75.9925 25.1069 75.9269L25.2153 75.9298Z" fill="#EE2128"/>
<path d="M28.4293 77.0879L28.4688 77.76H28.3693C28.3619 77.6736 28.3417 77.5887 28.3092 77.5082C28.2849 77.4513 28.2472 77.401 28.1994 77.3618C28.157 77.3271 28.1067 77.3034 28.053 77.2929C27.9932 77.2809 27.9324 77.275 27.8714 77.2754H27.4453V79.3253C27.4447 79.3915 27.4496 79.4576 27.46 79.5229C27.4697 79.5785 27.4912 79.6315 27.5229 79.6781C27.5556 79.7228 27.6003 79.7574 27.6518 79.7777C27.7212 79.8049 27.7955 79.8174 27.87 79.8143V79.9168H26.5287V79.8143C26.6075 79.8178 26.6862 79.8054 26.7601 79.7777C26.8117 79.7583 26.8562 79.7236 26.8875 79.6781C26.9174 79.6312 26.9365 79.5782 26.9431 79.5229C26.951 79.4573 26.9549 79.3913 26.9548 79.3253V77.2754H26.5346C26.4539 77.2731 26.3734 77.2835 26.2959 77.3061C26.2402 77.325 26.19 77.3572 26.1495 77.3998C26.1109 77.4414 26.0828 77.4916 26.0675 77.5462C26.0499 77.6144 26.0386 77.684 26.0338 77.7542H25.9313L25.9679 77.0821L28.4293 77.0879Z" fill="#EE2128"/>
<path d="M30.9594 77.0879L30.9873 77.7542H30.8848C30.8806 77.6513 30.852 77.5509 30.8013 77.4613C30.7598 77.3989 30.7028 77.3485 30.6358 77.3149C30.5717 77.2815 30.5015 77.2616 30.4294 77.2563C30.3562 77.2563 30.283 77.2475 30.2215 77.2475H29.6211V78.3677H30.179C30.2667 78.3714 30.3542 78.3579 30.4367 78.3281C30.4905 78.309 30.537 78.2737 30.57 78.2271C30.5984 78.1833 30.615 78.1328 30.6183 78.0807C30.6212 78.0261 30.6212 77.9713 30.6183 77.9167H30.7252V78.9563H30.6183C30.6173 78.8941 30.6129 78.832 30.6051 78.7703C30.6001 78.7149 30.5779 78.6625 30.5417 78.6202C30.5055 78.578 30.457 78.548 30.403 78.5346C30.3192 78.5113 30.2323 78.501 30.1453 78.5038H29.6197V79.4483C29.6197 79.5054 29.6197 79.5551 29.6197 79.5947C29.6207 79.6307 29.633 79.6655 29.6548 79.6942C29.6793 79.7234 29.7128 79.7435 29.75 79.7514C29.8097 79.7636 29.8706 79.769 29.9316 79.7675H30.1673C30.2555 79.7679 30.3435 79.7621 30.4309 79.7499C30.5096 79.7377 30.5851 79.7104 30.6534 79.6694C30.7265 79.6227 30.7901 79.5626 30.8408 79.4922C30.9089 79.3968 30.9631 79.2923 31.0019 79.1818H31.1059L30.936 79.9139H28.7631V79.8114C28.8362 79.8161 28.9092 79.8004 28.974 79.766C29.0201 79.7402 29.0578 79.7015 29.0823 79.6547C29.1056 79.6092 29.1191 79.5593 29.1219 79.5083C29.1219 79.4541 29.1219 79.4014 29.1219 79.3516V77.637C29.1225 77.5749 29.119 77.5128 29.1116 77.4511C29.1079 77.3992 29.0918 77.349 29.0647 77.3046C29.0379 77.2645 28.9997 77.2334 28.9549 77.2153C28.8919 77.1913 28.8247 77.1804 28.7573 77.1831V77.0821L30.9594 77.0879Z" fill="#EE2128"/>
<path d="M32.4236 77.088V77.189C32.3567 77.1841 32.2896 77.1926 32.226 77.2139C32.2054 77.2212 32.1879 77.2351 32.176 77.2533C32.1641 77.2716 32.1585 77.2932 32.1601 77.315C32.1605 77.3539 32.1674 77.3925 32.1806 77.4292C32.1938 77.4658 32.2113 77.5068 32.2318 77.5507L32.9639 79.2331L33.5496 77.7147L33.5979 77.5771C33.6111 77.539 33.6228 77.5039 33.6302 77.4746C33.6375 77.4453 33.6433 77.4189 33.6477 77.3955C33.6492 77.3736 33.6492 77.3516 33.6477 77.3296C33.6489 77.308 33.6436 77.2864 33.6327 77.2677C33.6218 77.249 33.6056 77.2339 33.5862 77.2242C33.5335 77.1982 33.4751 77.1861 33.4164 77.189V77.088H34.1968V77.189C34.1388 77.1874 34.0814 77.2021 34.0313 77.2315C33.982 77.2652 33.9406 77.3091 33.9098 77.3604C33.8682 77.4257 33.8329 77.4948 33.8044 77.5668C33.7712 77.6478 33.7346 77.7401 33.6946 77.8436L32.8629 79.9901H32.7575L31.7325 77.5858C31.7024 77.5067 31.6647 77.4307 31.6198 77.3589C31.5914 77.3134 31.5558 77.2728 31.5144 77.2388C31.4822 77.2149 31.4444 77.1997 31.4045 77.1949C31.3597 77.1925 31.3147 77.1925 31.2698 77.1949V77.0939L32.4236 77.088Z" fill="#EE2128"/>
<path d="M36.5659 77.0879L36.5937 77.7542H36.4912C36.487 77.6513 36.4584 77.5509 36.4078 77.4613C36.3663 77.3989 36.3092 77.3485 36.2423 77.3149C36.1783 77.2813 36.108 77.2614 36.0358 77.2563C35.9626 77.2563 35.8894 77.2475 35.8279 77.2475H35.2276V78.3677H35.7913C35.879 78.3714 35.9665 78.3579 36.049 78.3281C36.1028 78.309 36.1493 78.2737 36.1823 78.2271C36.2107 78.1833 36.2273 78.1328 36.2306 78.0807C36.2306 78.0265 36.2306 77.9723 36.2306 77.9167H36.336V78.9563H36.2306C36.2306 78.8875 36.2306 78.8245 36.2159 78.7703C36.2102 78.7171 36.1899 78.6664 36.1574 78.6239C36.1183 78.5802 36.0674 78.5487 36.011 78.5331C35.9266 78.51 35.8392 78.4997 35.7518 78.5024H35.2261V79.4468C35.2261 79.5039 35.2261 79.5537 35.2261 79.5932C35.2272 79.6293 35.2395 79.6641 35.2613 79.6928C35.2857 79.7219 35.3192 79.742 35.3564 79.7499C35.4162 79.7621 35.4771 79.7675 35.538 79.766H35.7737C35.8619 79.7665 35.95 79.7606 36.0373 79.7484C36.116 79.7362 36.1916 79.7089 36.2599 79.6679C36.333 79.6212 36.3966 79.5611 36.4473 79.4907C36.5154 79.3954 36.5696 79.2909 36.6084 79.1803H36.7123L36.5425 79.9124H34.3696V79.8099C34.4427 79.8146 34.5157 79.7989 34.5804 79.7645C34.6266 79.7387 34.6642 79.7001 34.6888 79.6533C34.7121 79.6078 34.7255 79.5579 34.7283 79.5068C34.7283 79.4527 34.7283 79.3999 34.7283 79.3502V77.637C34.7289 77.5749 34.7255 77.5128 34.718 77.4511C34.7143 77.3992 34.6982 77.349 34.6712 77.3046C34.6444 77.2645 34.6061 77.2334 34.5614 77.2153C34.4984 77.1912 34.4311 77.1802 34.3637 77.1831V77.0821L36.5659 77.0879Z" fill="#EE2128"/>
<path d="M38.3713 77.088C38.6245 77.0825 38.8767 77.1212 39.1166 77.2022C39.3091 77.2671 39.4868 77.3697 39.6393 77.5038C39.7739 77.6249 39.8791 77.7751 39.9468 77.9431C40.0136 78.1056 40.0475 78.2798 40.0464 78.4555C40.0454 78.539 40.0381 78.6222 40.0244 78.7045C40.0069 78.8047 39.9789 78.9029 39.941 78.9973C39.8987 79.1011 39.8442 79.1994 39.7784 79.2901C39.7066 79.3907 39.6203 79.48 39.5222 79.5552C39.416 79.6392 39.2994 79.7091 39.1752 79.7631C39.0636 79.8111 38.9473 79.8474 38.8282 79.8714C38.7129 79.8949 38.5958 79.9081 38.4782 79.911C38.3611 79.911 38.2425 79.911 38.1209 79.911H36.9218V79.8085C36.9911 79.8097 37.0604 79.8028 37.1282 79.788C37.1752 79.7785 37.2184 79.7556 37.2527 79.7221C37.2844 79.6895 37.3058 79.6482 37.3142 79.6035C37.327 79.5433 37.3329 79.4819 37.3317 79.4205V77.6019C37.3334 77.5315 37.326 77.4611 37.3098 77.3925C37.2964 77.3451 37.2712 77.3017 37.2366 77.2666C37.2002 77.2344 37.1556 77.2131 37.1077 77.2051C37.0464 77.1937 36.9841 77.1883 36.9218 77.189V77.088H38.3713ZM37.8222 79.706L37.9028 79.725L38.017 79.7411C38.058 79.7411 38.1004 79.7499 38.1458 79.7528H38.2791C38.3464 79.7513 38.4134 79.7444 38.4797 79.7323C38.5669 79.7152 38.6522 79.6897 38.7345 79.6562C38.8284 79.6163 38.9181 79.5672 39.0024 79.5098C39.0951 79.4471 39.1771 79.3699 39.2455 79.2814C39.3208 79.1815 39.3796 79.0703 39.4197 78.9519C39.4669 78.8104 39.4896 78.6618 39.4871 78.5126C39.4897 78.3291 39.4574 78.1467 39.3919 77.9753C39.3326 77.8236 39.2423 77.686 39.1269 77.5712C39.0137 77.4592 38.8786 77.372 38.7301 77.3149C38.5705 77.2547 38.4013 77.2245 38.2308 77.2256H38.1341H38.0199L37.9086 77.2344H37.8266L37.8222 79.706Z" fill="#EE2128"/>
<path d="M40.4665 78.4496C40.4651 78.2576 40.5009 78.0672 40.572 77.8888C40.6402 77.7179 40.742 77.5624 40.8712 77.4314C41.0005 77.3004 41.1546 77.1966 41.3246 77.126C41.7005 76.9754 42.12 76.9754 42.4959 77.126C42.6689 77.1979 42.825 77.3051 42.9542 77.4408C43.0821 77.5775 43.1817 77.7383 43.2471 77.9137C43.3189 78.1036 43.3547 78.3052 43.3525 78.5082C43.3547 78.7085 43.3184 78.9073 43.2456 79.0939C43.1792 79.2679 43.0797 79.4275 42.9528 79.5639C42.8236 79.6982 42.6687 79.8053 42.4974 79.8787C42.3151 79.9562 42.1186 79.9951 41.9205 79.9929C41.8178 79.992 41.7154 79.9822 41.6145 79.9636C41.5026 79.9425 41.3935 79.9086 41.2894 79.8626C41.1797 79.8135 41.0764 79.751 40.9819 79.6766C40.8795 79.5936 40.791 79.4948 40.7198 79.3838C40.6397 79.259 40.579 79.1227 40.5397 78.9797C40.4905 78.8073 40.4659 78.6289 40.4665 78.4496ZM41.0259 78.4892C41.0259 78.5272 41.0259 78.5873 41.0259 78.6678C41.0295 78.7595 41.0388 78.851 41.0537 78.9416C41.0712 79.0465 41.0972 79.1498 41.1313 79.2505C41.1638 79.3555 41.2133 79.4544 41.2777 79.5434C41.3444 79.6326 41.4299 79.7061 41.5281 79.7586C41.6443 79.8146 41.7717 79.8436 41.9007 79.8436C42.0298 79.8436 42.1571 79.8146 42.2734 79.7586C42.372 79.7061 42.4579 79.6326 42.5252 79.5434C42.5901 79.4547 42.6396 79.3557 42.6716 79.2505C42.7057 79.1503 42.7317 79.0475 42.7492 78.9431C42.7641 78.8534 42.7734 78.763 42.7771 78.6722C42.7771 78.5931 42.7771 78.5258 42.7771 78.495C42.7771 78.4306 42.7771 78.3486 42.7771 78.2593C42.7726 78.1609 42.7608 78.063 42.7419 77.9664C42.7221 77.8664 42.6932 77.7684 42.6555 77.6736C42.6189 77.579 42.5665 77.4913 42.5003 77.4144C42.4329 77.3361 42.3502 77.2723 42.2573 77.227C42.146 77.1768 42.0249 77.1523 41.9029 77.1553C41.7905 77.1526 41.6788 77.1735 41.5749 77.2168C41.4852 77.2542 41.404 77.3095 41.3363 77.3793C41.2697 77.4488 41.2152 77.529 41.1752 77.6165C41.1323 77.7064 41.0989 77.8007 41.0756 77.8976C41.0525 77.9939 41.0363 78.0918 41.0273 78.1905C41.0264 78.2998 41.0259 78.3993 41.0259 78.4892Z" fill="#EE2128"/>
<path d="M45.8476 79.9096L44.805 78.6005H44.7377H44.6352H44.5737V79.3678C44.5691 79.4538 44.5836 79.5398 44.6161 79.6196C44.6383 79.6717 44.6742 79.7168 44.7201 79.75C44.7598 79.7772 44.8055 79.7943 44.8534 79.7997C44.9002 79.7997 44.9412 79.8071 44.9778 79.8071V79.9096H43.6263V79.8071C43.7059 79.8091 43.7854 79.7992 43.8621 79.7778C43.9169 79.7631 43.9653 79.7307 43.9997 79.6855C44.0338 79.6383 44.0559 79.5836 44.0641 79.5259C44.075 79.4478 44.0799 79.369 44.0788 79.2902V77.7088C44.0795 77.6305 44.0751 77.5523 44.0656 77.4746C44.0585 77.416 44.0368 77.3601 44.0026 77.312C43.9678 77.2674 43.9196 77.235 43.865 77.2198C43.7876 77.1969 43.707 77.1865 43.6263 77.189V77.088H44.8548C44.9148 77.088 44.9822 77.088 45.0569 77.088C45.133 77.0925 45.2088 77.1018 45.2838 77.1158C45.3632 77.131 45.4411 77.153 45.5166 77.1817C45.5966 77.2117 45.672 77.2526 45.7407 77.3033C45.8192 77.3605 45.8846 77.4339 45.9325 77.5185C45.9836 77.6107 46.0098 77.7147 46.0086 77.8201C46.0103 77.9694 45.9583 78.1144 45.8622 78.2286C45.8196 78.2774 45.7703 78.3198 45.7158 78.3546C45.6668 78.3872 45.6154 78.4161 45.562 78.4409C45.5142 78.4615 45.4653 78.4795 45.4156 78.4951L45.3073 78.5259L46.0394 79.4366C46.0833 79.4893 46.1258 79.5376 46.1653 79.583C46.2025 79.6214 46.2431 79.6562 46.2868 79.687C46.328 79.7157 46.3722 79.7398 46.4186 79.7587C46.4659 79.7788 46.5149 79.7945 46.565 79.8056V79.9081L45.8476 79.9096ZM44.5737 78.4541C44.6107 78.4565 44.6479 78.4565 44.685 78.4541C44.7278 78.4576 44.7709 78.4576 44.8138 78.4541C44.8633 78.4493 44.9122 78.4405 44.9602 78.4278C45.0152 78.4129 45.0687 78.3928 45.1198 78.3677C45.2256 78.3153 45.3126 78.2315 45.3688 78.1276C45.3952 78.0815 45.4158 78.0323 45.4303 77.9812C45.4424 77.9333 45.4488 77.8842 45.4493 77.8348C45.4501 77.7543 45.4362 77.6744 45.4083 77.599C45.3824 77.5282 45.3415 77.4638 45.2884 77.4103C45.2354 77.3567 45.1714 77.3152 45.1008 77.2886C45.0229 77.258 44.9399 77.2426 44.8563 77.2432C44.8034 77.2436 44.7506 77.247 44.6981 77.2535L44.5752 77.2696L44.5737 78.4541Z" fill="#EE2128"/>
<path d="M48.9356 77.0879L48.9634 77.7542H48.8609C48.8567 77.6513 48.8281 77.5509 48.7774 77.4613C48.736 77.3989 48.6789 77.3485 48.612 77.3149C48.548 77.2812 48.4777 77.2612 48.4055 77.2563C48.3323 77.2563 48.2591 77.2475 48.1976 77.2475H47.5973V78.3677H48.1551C48.2428 78.3715 48.3304 78.3581 48.4129 78.3281C48.4666 78.309 48.5132 78.2737 48.5461 78.2271C48.5745 78.1833 48.5911 78.1328 48.5944 78.0807C48.5944 78.0265 48.5944 77.9723 48.5944 77.9167H48.6998V78.9563H48.5944C48.5944 78.8875 48.5944 78.8245 48.5798 78.7703C48.574 78.7171 48.5537 78.6664 48.5212 78.6239C48.4821 78.5802 48.4313 78.5487 48.3748 78.5331C48.2904 78.51 48.2031 78.4997 48.1156 78.5024H47.59V79.4468C47.59 79.5039 47.59 79.5537 47.59 79.5932C47.591 79.6293 47.6033 79.6641 47.6251 79.6928C47.6495 79.7219 47.6831 79.742 47.7203 79.7499C47.78 79.7621 47.8409 79.7675 47.9018 79.766H48.1376C48.2257 79.7665 48.3138 79.7606 48.4011 79.7484C48.4798 79.7362 48.5554 79.7089 48.6237 79.6679C48.6968 79.6212 48.7604 79.5611 48.8111 79.4907C48.8792 79.3954 48.9334 79.2909 48.9722 79.1803H49.0761L48.9063 79.9124H46.7393V79.8099C46.8124 79.8146 46.8854 79.7989 46.9501 79.7645C46.9963 79.7387 47.0339 79.7001 47.0585 79.6533C47.0818 79.6078 47.0952 79.5579 47.098 79.5068C47.098 79.4527 47.098 79.3999 47.098 79.3502V77.637C47.0986 77.5749 47.0952 77.5128 47.0877 77.4511C47.084 77.3992 47.0679 77.349 47.0409 77.3046C47.0141 77.2645 46.9758 77.2334 46.9311 77.2153C46.8681 77.1912 46.8008 77.1802 46.7334 77.1831V77.0821L48.9356 77.0879Z" fill="#EE2128"/>
<path d="M51.1026 77.9489H50.9987C50.9782 77.8617 50.9503 77.7765 50.9152 77.6941C50.8706 77.594 50.8119 77.5008 50.741 77.4174C50.6821 77.3445 50.6081 77.2852 50.5243 77.2435C50.4404 77.2018 50.3485 77.1787 50.2548 77.1758C50.1972 77.1745 50.1399 77.185 50.0865 77.2065C50.0413 77.2248 50.0004 77.2522 49.9664 77.287C49.9337 77.3197 49.9087 77.3592 49.8932 77.4027C49.8762 77.4466 49.8677 77.4933 49.8683 77.5403C49.867 77.6113 49.8842 77.6815 49.9181 77.7439C49.9566 77.8103 50.0061 77.8697 50.0645 77.9196C50.1351 77.9811 50.2105 78.0369 50.29 78.0865C50.3778 78.1421 50.4759 78.2007 50.5828 78.2637C50.6897 78.3266 50.76 78.372 50.8464 78.4335C50.9305 78.4924 51.0071 78.5613 51.0748 78.6385C51.1402 78.7135 51.194 78.7979 51.2344 78.8889C51.2753 78.9851 51.2958 79.0889 51.2944 79.1934C51.2935 79.285 51.2766 79.3756 51.2446 79.4614C51.2096 79.5577 51.1553 79.6459 51.0851 79.7206C51.0061 79.804 50.9116 79.8712 50.8068 79.9182C50.6791 79.974 50.5406 80.001 50.4013 79.9973C50.3332 79.998 50.2653 79.9901 50.1992 79.9739C50.1377 79.9592 50.0791 79.9431 50.0264 79.9256L49.88 79.8772C49.8397 79.8622 49.7971 79.8543 49.7541 79.8538C49.7245 79.8532 49.6951 79.8587 49.6677 79.8699C49.6459 79.879 49.6257 79.8913 49.6077 79.9065C49.5916 79.9199 49.5778 79.9357 49.5667 79.9534L49.5388 79.9973H49.4393V79.0441H49.5388C49.5625 79.1577 49.6014 79.2675 49.6545 79.3706C49.6959 79.4506 49.7482 79.5245 49.8097 79.5902C49.859 79.6421 49.9152 79.6869 49.9766 79.7235C50.0267 79.7517 50.0797 79.7743 50.1348 79.7908C50.176 79.8027 50.2181 79.811 50.2607 79.8157H50.328C50.3968 79.8154 50.4652 79.8061 50.5316 79.7879C50.5938 79.7717 50.6525 79.7439 50.7044 79.7059C50.7557 79.6672 50.7973 79.6171 50.8259 79.5595C50.8569 79.4967 50.8725 79.4274 50.8713 79.3574C50.8715 79.2933 50.8565 79.2301 50.8273 79.1729C50.7934 79.1104 50.7505 79.0532 50.7 79.0031C50.6393 78.9405 50.5726 78.8841 50.5008 78.8347C50.4232 78.7791 50.3339 78.722 50.2343 78.6634C50.1348 78.6048 50.044 78.5492 49.9517 78.4906C49.8616 78.4336 49.7772 78.3679 49.6999 78.2944C49.6267 78.2246 49.5658 78.1429 49.5198 78.0528C49.4719 77.957 49.4482 77.8509 49.451 77.7439C49.4506 77.6494 49.4675 77.5556 49.5008 77.4671C49.533 77.3794 49.5828 77.2992 49.6472 77.2314C49.7174 77.1608 49.8017 77.1059 49.8946 77.0703C50.0037 77.0277 50.1202 77.0073 50.2373 77.0103C50.3056 77.0093 50.3738 77.0157 50.4408 77.0293C50.4943 77.0415 50.5471 77.0567 50.5989 77.0747L50.7219 77.1187C50.7551 77.1315 50.7903 77.1384 50.8259 77.1391C50.844 77.1406 50.8622 77.1382 50.8794 77.1321C50.8965 77.1261 50.9122 77.1165 50.9254 77.104C50.9521 77.0763 50.9743 77.0447 50.9913 77.0103H51.1012L51.1026 77.9489Z" fill="#EE2128"/>
<path d="M56.226 78.8274L56.3197 78.8479L55.9873 79.9036H52.9739V79.7982H53.1204C53.1881 79.8041 53.2562 79.7923 53.318 79.7641C53.3798 79.7359 53.4333 79.6921 53.4732 79.6371C53.5257 79.5021 53.5462 79.3568 53.5333 79.2125V76.7072C53.5333 76.4642 53.5069 76.3119 53.4527 76.2504C53.4097 76.2066 53.3577 76.1727 53.3004 76.151C53.243 76.1292 53.1816 76.1202 53.1204 76.1245H52.9739V76.0176H54.731V76.1245C54.5822 76.1135 54.4328 76.1329 54.2917 76.1816C54.2206 76.2105 54.161 76.2619 54.1219 76.328C54.0802 76.4704 54.0643 76.6192 54.075 76.7673V79.2125C54.0673 79.3234 54.0833 79.4347 54.1219 79.539C54.1452 79.5804 54.1826 79.6121 54.2273 79.6283C54.3749 79.6561 54.5254 79.666 54.6754 79.6576H54.9726C55.1841 79.6682 55.396 79.646 55.6007 79.5917C55.7289 79.5425 55.8427 79.462 55.9316 79.3575C56.0571 79.1974 56.1565 79.0185 56.226 78.8274Z" fill="#EE2128"/>
<path d="M57.8615 79.9096H56.5583V79.8071C56.6313 79.8096 56.7042 79.7991 56.7736 79.7763C56.8225 79.7593 56.865 79.7276 56.8951 79.6855C56.9249 79.6419 56.9435 79.5916 56.9493 79.5391C56.9587 79.4717 56.9631 79.4037 56.9625 79.3356V77.6708C56.9625 77.6107 56.9625 77.5507 56.9625 77.4936C56.9593 77.4421 56.9443 77.392 56.9185 77.3472C56.8904 77.2997 56.8486 77.262 56.7985 77.2388C56.7246 77.2071 56.6445 77.1926 56.5642 77.1964V77.0953H57.8674V77.1964C57.787 77.1923 57.7069 77.2068 57.6331 77.2388C57.5827 77.2615 57.5407 77.2994 57.513 77.3472C57.4874 77.3921 57.4719 77.4421 57.4676 77.4936C57.4676 77.5507 57.4676 77.6107 57.4676 77.6708V79.3327C57.467 79.4007 57.4714 79.4688 57.4808 79.5362C57.488 79.5884 57.5065 79.6383 57.535 79.6826C57.5654 79.7251 57.6084 79.7569 57.658 79.7734C57.7273 79.7965 57.8002 79.8069 57.8732 79.8041L57.8615 79.9096Z" fill="#EE2128"/>
<path d="M58.9684 77.088L59.8469 79.1672L60.6873 77.088H61.6288V77.189C61.5469 77.1853 61.4651 77.1987 61.3887 77.2286C61.335 77.2518 61.29 77.2912 61.2599 77.3413C61.2312 77.3943 61.2138 77.4526 61.2086 77.5126C61.2086 77.5785 61.1984 77.6488 61.1984 77.7264V79.2785C61.1984 79.3532 61.1984 79.4249 61.1984 79.4864C61.2013 79.5455 61.2178 79.6031 61.2467 79.6548C61.2759 79.7047 61.3206 79.7438 61.3741 79.7661C61.4526 79.7974 61.537 79.8114 61.6215 79.8071V79.9096H60.3242V79.8071C60.3996 79.8116 60.4746 79.7948 60.5409 79.7587C60.5904 79.7292 60.6297 79.6853 60.6537 79.6328C60.6787 79.5749 60.6926 79.5128 60.6947 79.4498C60.6947 79.3795 60.6947 79.3034 60.6947 79.2272V77.5097H60.683L59.7254 79.911H59.6302L58.6711 77.6268H58.6594V79.34C58.658 79.4211 58.6659 79.5022 58.6828 79.5816C58.6945 79.637 58.7219 79.6879 58.7619 79.728C58.8035 79.7637 58.8542 79.787 58.9083 79.7953C58.9843 79.8082 59.0612 79.8141 59.1382 79.8129V79.9154H58.0562V79.8129C58.1388 79.817 58.2214 79.8025 58.2977 79.7705C58.3489 79.7479 58.3922 79.7107 58.4222 79.6636C58.4479 79.6187 58.4634 79.5687 58.4676 79.5171C58.4676 79.4644 58.4749 79.4117 58.4749 79.3605V77.8582C58.4749 77.743 58.4749 77.6454 58.4749 77.5653C58.475 77.494 58.4611 77.4234 58.4339 77.3574C58.4087 77.3027 58.3645 77.259 58.3095 77.2344C58.2301 77.2043 58.1454 77.1908 58.0605 77.1949V77.0939L58.9684 77.088Z" fill="#EE2128"/>
<path d="M63.1385 79.9096H61.8354V79.8071C61.9089 79.8097 61.9822 79.7993 62.0521 79.7763C62.101 79.7593 62.1435 79.7276 62.1736 79.6855C62.2028 79.6416 62.2213 79.5915 62.2278 79.5391C62.2372 79.4717 62.2416 79.4037 62.241 79.3356V77.6708C62.241 77.6107 62.241 77.5507 62.241 77.4936C62.2365 77.4423 62.2216 77.3925 62.197 77.3472C62.1688 77.2993 62.1263 77.2615 62.0755 77.2388C62.0017 77.2068 61.9216 77.1923 61.8412 77.1964V77.0953H63.1444V77.1964C63.0646 77.1924 62.9849 77.207 62.9116 77.2388C62.8608 77.2615 62.8183 77.2993 62.7901 77.3472C62.7656 77.3925 62.7506 77.4423 62.7461 77.4936C62.7461 77.5507 62.7461 77.6107 62.7461 77.6708V79.3327C62.7455 79.4007 62.7499 79.4688 62.7593 79.5362C62.7658 79.5885 62.7843 79.6386 62.8135 79.6826C62.8436 79.7247 62.8861 79.7564 62.935 79.7734C63.0044 79.7962 63.0773 79.8066 63.1503 79.8041L63.1385 79.9096Z" fill="#EE2128"/>
<path d="M65.8941 77.0879L65.9351 77.76H65.8341C65.8268 77.6736 65.8065 77.5887 65.7741 77.5082C65.7498 77.4513 65.7121 77.401 65.6642 77.3618C65.6219 77.3271 65.5716 77.3034 65.5178 77.2929C65.4581 77.2809 65.3972 77.275 65.3363 77.2754H64.9116V79.3253C64.9107 79.3915 64.9161 79.4577 64.9277 79.5229C64.9364 79.5786 64.9574 79.6317 64.9892 79.6781C65.0219 79.7228 65.0666 79.7574 65.1181 79.7777C65.1875 79.8049 65.2618 79.8174 65.3363 79.8143V79.9168H63.9921V79.8143C64.0704 79.8176 64.1486 79.8052 64.222 79.7777C64.2738 79.758 64.3187 79.7233 64.3508 79.6781C64.3803 79.6311 64.3989 79.5781 64.405 79.5229C64.4129 79.4573 64.4168 79.3913 64.4167 79.3253V77.2754H63.9965C63.9158 77.2731 63.8353 77.2835 63.7578 77.3061C63.7022 77.325 63.6519 77.3572 63.6114 77.3998C63.5728 77.4414 63.5447 77.4916 63.5294 77.5462C63.5118 77.6144 63.5005 77.684 63.4957 77.7542H63.3932L63.4299 77.0821L65.8941 77.0879Z" fill="#EE2128"/>
<path d="M68.4229 77.0879L68.4522 77.7542H68.3482C68.344 77.6513 68.3154 77.5509 68.2647 77.4613C68.2233 77.3989 68.1662 77.3485 68.0993 77.3149C68.0353 77.2812 67.965 77.2612 67.8928 77.2563C67.8196 77.2563 67.7464 77.2475 67.6849 77.2475H67.0861V78.3677H67.6425C67.7301 78.3715 67.8177 78.3581 67.9002 78.3281C67.9539 78.309 68.0005 78.2737 68.0334 78.2271C68.0618 78.1833 68.0784 78.1328 68.0817 78.0807C68.0817 78.0265 68.0817 77.9723 68.0817 77.9167H68.1871V78.9563H68.0817C68.0817 78.8875 68.0744 78.8245 68.0671 78.7703C68.0613 78.7171 68.0411 78.6664 68.0085 78.6239C67.9694 78.5802 67.9186 78.5487 67.8621 78.5331C67.7777 78.51 67.6904 78.4997 67.6029 78.5024H67.0787V79.4468C67.0787 79.5039 67.0787 79.5537 67.0787 79.5932C67.0798 79.6293 67.0921 79.6641 67.1139 79.6928C67.1383 79.7219 67.1718 79.742 67.209 79.7499C67.2688 79.762 67.3297 79.7674 67.3906 79.766H67.6264C67.7145 79.7665 67.8026 79.7606 67.8899 79.7484C67.9686 79.7362 68.0442 79.7089 68.1125 79.6679C68.1856 79.6212 68.2492 79.5611 68.2999 79.4907C68.368 79.3954 68.4222 79.2909 68.4609 79.1803H68.5649L68.3951 79.9124H66.2266V79.8099C66.3001 79.8144 66.3735 79.7987 66.4389 79.7645C66.4843 79.7383 66.5213 79.6997 66.5458 79.6533C66.5691 79.6078 66.5825 79.5579 66.5853 79.5068C66.5853 79.4527 66.5853 79.3999 66.5853 79.3502V77.637C66.5856 77.5749 66.5827 77.5129 66.5765 77.4511C66.5715 77.3993 66.555 77.3492 66.5282 77.3046C66.5014 77.2645 66.4631 77.2334 66.4184 77.2153C66.3554 77.1912 66.2881 77.1802 66.2207 77.1831V77.0821L68.4229 77.0879Z" fill="#EE2128"/>
<path d="M70.2282 77.088C70.4814 77.0825 70.7336 77.1212 70.9735 77.2022C71.166 77.2671 71.3437 77.3697 71.4962 77.5038C71.6308 77.6249 71.736 77.7751 71.8037 77.9431C71.871 78.1055 71.9053 78.2797 71.9047 78.4555C71.9032 78.539 71.8954 78.6222 71.8813 78.7045C71.8638 78.8047 71.8358 78.9029 71.7978 78.9973C71.7556 79.1011 71.701 79.1994 71.6353 79.2901C71.5635 79.3907 71.4771 79.48 71.3791 79.5552C71.2729 79.6392 71.1562 79.7091 71.032 79.7631C70.9205 79.8113 70.8042 79.8476 70.685 79.8714C70.5698 79.8949 70.4527 79.9081 70.3351 79.911C70.2179 79.911 70.0993 79.911 69.9778 79.911H68.7786V79.8085C68.848 79.8097 68.9173 79.8028 68.9851 79.788C69.0321 79.7785 69.0753 79.7556 69.1095 79.7221C69.1412 79.6892 69.163 79.6481 69.1725 79.6035C69.184 79.5432 69.1894 79.4819 69.1886 79.4205V77.6019C69.1902 77.5315 69.1829 77.4611 69.1666 77.3925C69.1532 77.3451 69.1281 77.3017 69.0934 77.2666C69.0571 77.2344 69.0124 77.2131 68.9646 77.2051C68.9033 77.1937 68.841 77.1883 68.7786 77.189V77.088H70.2282ZM69.6791 79.706L69.7596 79.725L69.8739 79.7411C69.9149 79.7411 69.9573 79.7499 70.0027 79.7528H70.136C70.2033 79.7513 70.2703 79.7444 70.3365 79.7323C70.4237 79.7152 70.5091 79.6897 70.5913 79.6562C70.6854 79.6166 70.7752 79.5675 70.8593 79.5098C70.9519 79.4471 71.034 79.3699 71.1023 79.2814C71.1782 79.1819 71.237 79.0706 71.2766 78.9519C71.3237 78.8104 71.3465 78.6618 71.3439 78.5126C71.3466 78.3291 71.3143 78.1467 71.2488 77.9753C71.1895 77.8236 71.0992 77.686 70.9837 77.5712C70.8706 77.4592 70.7355 77.372 70.5869 77.3149C70.4274 77.2547 70.2581 77.2245 70.0876 77.2256H69.9866H69.8724L69.7611 77.2344H69.6791V79.706Z" fill="#EE2128"/>
</svg>
